<svg xmlns="http://www.w3.org/2000/svg" viewBox="0 0 420 320"><defs><linearGradient id="b" x1="0" y1="0" x2="1" y2="1"><stop stop-color="#ffe2f0"/><stop offset=".5" stop-color="#d7c3ff"/><stop offset="1" stop-color="#9cccf5"/></linearGradient></defs><g fill="url(#b)" stroke="#987cae" stroke-width="4"><g transform="translate(100 90) rotate(0) scale(1)"><ellipse cx="-42" cy="-20" rx="48" ry="34" transform="rotate(-25 -42 -20)"/><ellipse cx="42" cy="-20" rx="48" ry="34" transform="rotate(25 42 -20)"/><ellipse cx="-32" cy="28" rx="34" ry="25" transform="rotate(25 -32 28)"/><ellipse cx="32" cy="28" rx="34" ry="25" transform="rotate(-25 32 28)"/><rect x="-5" y="-40" width="10" height="82" rx="5" fill="#8a729d"/></g><g transform="translate(250 80) rotate(18) scale(0.75)"><ellipse cx="-42" cy="-20" rx="48" ry="34" transform="rotate(-25 -42 -20)"/><ellipse cx="42" cy="-20" rx="48" ry="34" transform="rotate(25 42 -20)"/><ellipse cx="-32" cy="28" rx="34" ry="25" transform="rotate(25 -32 28)"/><ellipse cx="32" cy="28" rx="34" ry="25" transform="rotate(-25 32 28)"/><rect x="-5" y="-40" width="10" height="82" rx="5" fill="#8a729d"/></g><g transform="translate(310 210) rotate(-20) scale(0.65)"><ellipse cx="-42" cy="-20" rx="48" ry="34" transform="rotate(-25 -42 -20)"/><ellipse cx="42" cy="-20" rx="48" ry="34" transform="rotate(25 42 -20)"/><ellipse cx="-32" cy="28" rx="34" ry="25" transform="rotate(25 -32 28)"/><ellipse cx="32" cy="28" rx="34" ry="25" transform="rotate(-25 32 28)"/><rect x="-5" y="-40" width="10" height="82" rx="5" fill="#8a729d"/></g><g transform="translate(135 225) rotate(25) scale(0.55)"><ellipse cx="-42" cy="-20" rx="48" ry="34" transform="rotate(-25 -42 -20)"/><ellipse cx="42" cy="-20" rx="48" ry="34" transform="rotate(25 42 -20)"/><ellipse cx="-32" cy="28" rx="34" ry="25" transform="rotate(25 -32 28)"/><ellipse cx="32" cy="28" rx="34" ry="25" transform="rotate(-25 32 28)"/><rect x="-5" y="-40" width="10" height="82" rx="5" fill="#8a729d"/></g><g transform="translate(225 170) rotate(-5) scale(0.45)"><ellipse cx="-42" cy="-20" rx="48" ry="34" transform="rotate(-25 -42 -20)"/><ellipse cx="42" cy="-20" rx="48" ry="34" transform="rotate(25 42 -20)"/><ellipse cx="-32" cy="28" rx="34" ry="25" transform="rotate(25 -32 28)"/><ellipse cx="32" cy="28" rx="34" ry="25" transform="rotate(-25 32 28)"/><rect x="-5" y="-40" width="10" height="82" rx="5" fill="#8a729d"/></g></g></svg>