<svg xmlns="http://www.w3.org/2000/svg" viewBox="0 0 600 150"><defs><filter id="s"><feDropShadow dx="0" dy="4" stdDeviation="3" flood-opacity=".18"/></filter></defs><g filter="url(#s)" fill="none" stroke="#fffdf8" stroke-width="10" stroke-linecap="round"><path d="M18 72Q48 20 78 72T138 72T198 72T258 72T318 72T378 72T438 72T498 72T558 72"/><path d="M18 78Q48 130 78 78T138 78T198 78T258 78T318 78T378 78T438 78T498 78T558 78"/></g><g fill="#fffdf8" stroke="#ddd7d0" stroke-width="2"><circle cx="48" cy="74" r="12"/><circle cx="108" cy="74" r="12"/><circle cx="168" cy="74" r="12"/><circle cx="228" cy="74" r="12"/><circle cx="288" cy="74" r="12"/><circle cx="348" cy="74" r="12"/><circle cx="408" cy="74" r="12"/><circle cx="468" cy="74" r="12"/><circle cx="528" cy="74" r="12"/></g></svg>