<svg xmlns="http://www.w3.org/2000/svg" viewBox="0 0 320 150"><defs><filter id="g"><feTurbulence type="fractalNoise" baseFrequency=".65" numOctaves="3" seed="17"/><feColorMatrix type="saturate" values=".35"/><feComponentTransfer><feFuncA type="table" tableValues="0 .16"/></feComponentTransfer></filter></defs><path d="M10 18L33 10 55 18 78 11 99 17 121 9 145 18 167 10 190 16 212 8 235 17 258 11 279 19 311 14 306 40 314 65 307 88 313 113 304 138 280 132 259 141 235 134 211 142 188 134 165 140 143 133 120 142 98 134 75 139 51 131 31 139 9 132 16 108 8 86 14 63 7 41Z" fill="#486fae" stroke="#315b99" stroke-width="2"/><path d="M15 30C79 18 130 25 188 17M28 126C99 112 185 128 294 110" stroke="#9fb8df" stroke-width="7" opacity=".18"/><rect x="13" y="12" width="294" height="125" filter="url(#g)" opacity=".75"/></svg>